<?xml version="1.0" encoding="utf-8"?>
<!-- Svg Vector Icons : http://www.onlinewebfonts.com/icon -->
<!DOCTYPE svg PUBLIC "-//W3C//DTD SVG 1.1//EN" "http://www.w3.org/Graphics/SVG/1.1/DTD/svg11.dtd">
<svg version="1.1" xmlns="http://www.w3.org/2000/svg" xmlns:xlink="http://www.w3.org/1999/xlink" x="0px" y="0px" viewBox="0 0 1000 1000" enable-background="new 0 0 1000 1000" xml:space="preserve">
<metadata> Svg Vector Icons : http://www.onlinewebfonts.com/icon </metadata>
<g><g transform="translate(0.000000,512.000000) scale(0.100000,-0.100000)"><path d="M795.8,4989.8c-78.5-40.2-116.8-145.6-84.3-231.8c11.5-28.7,321.8-417.6,689.5-865.8c369.7-448.2,1202.9-1465.3,1854.1-2260.2C3906.4,837.3,4452.3,170.7,4467.6,153.5c26.8-28.7-61.3-139.8-955.8-1197.1C2052.3-2769.4,747.9-4328.6,723-4376.4c-61.3-114.9,9.6-277.7,155.1-354.3l80.4-44l3811.6-3.8c3003.3-3.8,3821.2,0,3857.6,19.2c105.3,53.6,107.2,63.2,394.6,1574.5c153.2,800.6,277.7,1476.8,277.7,1501.7c0,26.8-26.8,70.9-70.9,111.1l-70.9,67.1l-153.2-7.7c-99.6-7.7-187.7-24.9-247.1-51.7c-120.7-51.7-279.7-216.5-337.1-348.6c-222.2-498-302.6-630.2-490.3-798.7c-137.9-120.7-283.5-199.2-478.9-254.7l-153.2-46l-1852.2-5.7c-1020.9-1.9-1854.1,0-1854.1,5.7s626.3,771.9,1390.6,1700.9C5749-382.9,6390.6,404.4,6409.8,435c21.1,32.6,36.4,88.1,36.4,126.4c0,63.2-124.5,231.8-1216.3,1664.5c-668.5,877.2-1216.3,1601.3-1216.3,1608.9c0,21.1,2478.5,34.5,2781.2,15.3c452-26.8,680-134.1,829.4-390.7c67-113,170.5-404.1,241.3-674.2c65.1-254.8,99.6-310.3,218.3-367.8c76.6-36.4,111.1-40.2,306.5-34.5c197.3,5.7,224.1,9.6,262.4,49.8l44,44.1l5.7,1204.8l3.8,1204.8l-55.5,63.2l-55.5,63.2l-3867.2,5.7C1077.4,5022.4,859,5020.5,795.8,4989.8z M8319.4,3696.9c3.8-796.8,0-934.7-23-934.7c-17.2,0-32.5,30.7-40.2,80.5c-23,132.2-178.1,582.3-250.9,729.8c-124.5,247.1-270.1,398.4-496.1,511.4c-335.2,170.5-540.1,182-2522.6,159L3711,4227.5l-84.3-57.5c-107.3-74.7-160.9-182-137.9-270.1c9.6-38.3,509.5-710.6,1268-1702.8C5628.3,1055.6,6003.7,550,5990.3,534.6c-9.6-13.4-681.9-831.3-1494-1819.6c-814-988.3-1490.2-1819.6-1503.6-1848.3c-34.5-69-11.5-172.4,53.6-227.9l49.8-44.1h2072.4c2242.9,0,2216.1-1.9,2522.6,105.4c193.4,65.1,379.2,180.1,538.2,329.5c212.6,201.1,329.4,386.9,505.7,794.9c67,157.1,132.2,258.6,113,174.3c-3.8-19.1-107.3-559.3-229.8-1202.9c-120.7-641.7-226-1174.1-229.9-1181.8c-11.5-17.2-7171.2-21.1-7171.2-5.7c0,13.4,1361.8,1637.7,2683.5,3202.5C4446.5-545.7,4900.5-1.7,4912,19.4c26.8,51.7,26.8,149.4,0,199.2c-19.2,34.5-1593.6,1961.3-3068.4,3754.2c-291.1,354.4-530.6,649.3-530.6,655.1c0,5.8,1574.5,9.6,3501.3,7.7l3499.4-5.7L8319.4,3696.9z"/></g></g>
</svg>